/* XPM */
static char *clear_2x[] = {
"32 32 28 1",
" 	g #FFFFFF",
".	g #B4B4B4",
"+	g #1B1B1B",
"@	g #1C1C1C",
"#	g #B6B6B6",
"a	g #000000",
"%	g #1D1D1D",
"&	g #E6E6E6",
"*	g #797979",
"=	g #7A7A7A",
"-	g #E7E7E7",
";	g #BEBEBE",
">	g #131313",
",	g #BFBFBF",
"'	g #DDDDDD",
")	g #0C0C0C",
"!	g #0B0B0B",
"~	g #DADADA",
"{	g #424242",
"]	g #CCCCCC",
"^	g #1A1A1A",
"/	g #666666",
"(	g #4D4D4D",
"_	g #F3F3F3",
":	g #0E0E0E",
"<	g #808080",
"[	g #989898",
"}	g #333333",
"                                ",
"                                ",
"          .+@#                  ",
"          @aa%                  ",
"          aaaa                  ",
"          aaaa                  ",
"          aaaa                  ",
"          aaaa                  ",
"          aaaa                  ",
"          aaaa                  ",
"        &*aaaa=-                ",
"       ;>aaaaaa>,               ",
"      ')aaaaaaaa!~              ",
"      {aaaaaaaaaa{              ",
"                                ",
"                                ",
"     ]aaaaaaaaaaa^  aaaaaaaaaa  ",
"     /aaaaaaaaaaa(  aaaaaaaaaa  ",
"    _:aaaaaaaaaaa<  aaaaaaaaaa  ",
"    [aaaaaaaaaaaa.  aaaaaaaaaa  ",
"    }aaaaaaaaaaaa&          aa  ",
"   ]aaaaaaaaaaaa^           aa  ",
"   /aaaaaaaaaaaa(           aa  ",
"  _:aaaaaaaaaaaa<           aa  ",
"  [aaaaaaaaaaaaa.           aa  ",
"  }aaaaaaaaaaaaa&           aa  ",
"                            aa  ",
"                            aa  ",
"                aaaaaaaaaaaaaa  ",
"                aaaaaaaaaaaaaa  ",
"                                ",
"                                "};
