/* XPM */
static char * clear_xpm[] = {
"16 16 20 1",
" 	g #FFFFFF",
".	g #3A3A3A",
"+	g #3C3C3C",
"@	g #000000",
"#	g #EEEEEE",
"$	g #5C5C5C",
"%	g #5D5D5D",
"&	g #EFEFEF",
"*	g #4A4A4A",
"=	g #CCCCCC",
"-	g #1A1A1A",
";	g #666666",
">	g #4D4D4D",
",	g #F3F3F3",
"'	g #0E0E0E",
")	g #808080",
"!	g #989898",
"~	g #B4B4B4",
"{	g #333333",
"]	g #E6E6E6",
"                ",
"     .+         ",
"     @@         ",
"     @@         ",
"     @@         ",
"   #$@@%&       ",
"   *@@@@*       ",
"                ",
"  =@@@@@- @@@@@ ",
"  ;@@@@@> @@@@@ ",
" ,'@@@@@)     @ ",
" !@@@@@@~     @ ",
" {@@@@@@]     @ ",
"              @ ",
"        @@@@@@@ ",
"                "};
