/* XPM */
static char *_e067d6685c240fcbd4bc5df375037efu3CdrkhBoCl6bz2J[] = {
/* columns rows colors chars-per-pixel */
"32 32 11 1 ",
"  c black",
". c #070707",
"X c gray3",
"o c gray4",
"O c #0C0C0C",
"+ c gray5",
"@ c gray52",
"# c gray",
"! c gray76",
"% c gray77",
"& c white",
/* pixels */
"&&&&&&&&&&&&&&&&&&&&&&&&&&&&&&&&",
"&&&&&&&&&&&&&&&&&&&&&&&&&&&&&&&&",
"&&&&&&&&&&&&&&&&&&&&&&&&&&&&&&&&",
"&&&&&&&&&&&&&&&&&&&&&&&&&&&&&&&&",
"&&&&&&&&&&&&&&&&&&&&&&&&&&&&&&&&",
"&&&&&&&&&&&&&&&&&&&&&&&&&&&&&&&&",
"&&&&&&&&&&&&&&&&&&&&&&&&&&&&&&&&",
"&&&&&&@!&&&&&&&&&&&&&&!@&&&&&&&&",
"&&&&&@ O!&&&&&&&&&&&&!O @&&&&&&&",
"&&&&&%+ o#&&&&&&&&&&%+ o#&&&&&&&",
"&&&&&&%+ o#&&&&&&&&%+ o#&&&&&&&&",
"&&&&&&&%+ o#&&&&&&%+ o#&&&&&&&&&",
"&&&&&&&&%+ o#&&&&%+ o#&&&&&&&&&&",
"&&&&&&&&&%+ o#&&%+ o#&&&&&&&&&&&",
"&&&&&&&&&&%+ o#%+ o#&&&&&&&&&&&&",
"&&&&&&&&&&&%+ Xo o#&&&&&&&&&&&&&",
"&&&&&&&&&&&&%o  .#&&&&&&&&&&&&&&",
"&&&&&&&&&&&&%o  .#&&&&&&&&&&&&&&",
"&&&&&&&&&&&%+ Xo o#&&&&&&&&&&&&&",
"&&&&&&&&&&%+ o#%+ o#&&&&&&&&&&&&",
"&&&&&&&&&%+ o#&&%+ o#&&&&&&&&&&&",
"&&&&&&&&%+ o#&&&&%+ o#&&&&&&&&&&",
"&&&&&&&%+ o#&&&&&&%+ o#&&&&&&&&&",
"&&&&&&%+ o#&&&&&&&&%+ o#&&&&&&&&",
"&&&&&%+ o#&&&&&&&&&&%+ o#&&&&&&&",
"&&&&&@ O!&&&&&&&&&&&&!O @&&&&&&&",
"&&&&&&@!&&&&&&&&&&&&&&!@&&&&&&&&",
"&&&&&&&&&&&&&&&&&&&&&&&&&&&&&&&&",
"&&&&&&&&&&&&&&&&&&&&&&&&&&&&&&&&",
"&&&&&&&&&&&&&&&&&&&&&&&&&&&&&&&&",
"&&&&&&&&&&&&&&&&&&&&&&&&&&&&&&&&",
"&&&&&&&&&&&&&&&&&&&&&&&&&&&&&&&&"
};
