/* XPM */
static char *close[] = {
/* width height colors chars_per_pixel */
"16 16 12 1 ",
/* colors */
"  c black",
". c gray2",
"X c #060606",
"o c gray40",
"O c #6A6A6A",
"+ c #6F6F6F",
"@ c gray63",
"# c gray64",
"! c gray66",
"% c #D0D0D0",
"& c gray82",
"* c white",
/* pixels */
"****************",
"****************",
"****************",
"***&*******&****",
"**%.#*****#.%***",
"***!X@***!X@****",
"****!X@*!X@*****",
"*****!XOX@******",
"******+ o*******",
"*****!XOX@******",
"****!X@*!X@*****",
"***!X@***!X@****",
"**%.#*****#.%***",
"***&*******&****",
"****************",
"****************"
};
