/* XPM */
static char *expand[] = {
"16 16 2 1 ",
"  c black",
". c white",
"................",
"................",
"................",
"..            ..",
"..            ..",
"................",
"................",
"...  ..       ..",
"................",
"................",
"...  ..       ..",
"................",
"................",
"...  ..       ..",
"................",
"................"};
