<?xml version="1.0" encoding="UTF-8"?>
<!DOCTYPE svg PUBLIC "-//W3C//DTD SVG 1.1//EN" "http://www.w3.org/Graphics/SVG/1.1/DTD/svg11.dtd">
<svg xmlns="http://www.w3.org/2000/svg" xml:space="preserve" width="7.7899mm" height="7.79mm" version="1.1" style="shape-rendering:geometricPrecision; text-rendering:geometricPrecision; image-rendering:optimizeQuality; fill-rule:evenodd; clip-rule:evenodd"
viewBox="0 0 22.35 22.35"
 xmlns:xlink="http://www.w3.org/1999/xlink">
 <defs>
  <style type="text/css">
   <![CDATA[
    .fil0 {fill:#24292F}
   ]]>
  </style>
 </defs>
 <g id="L">
  <path class="fil0" d="M17.31 10.82l0 0 -0.1 0c-0.41,0 -0.74,0.34 -0.74,0.75l0 0.08 -0 0 0.03 3.96c0,0.41 -0.33,0.75 -0.74,0.75l-3.2 0c-0.41,0 -0.74,-0.34 -0.74,-0.75l-0 -4.4 -0 0 -0 -4.47c0,-0.41 0.33,-0.75 0.74,-0.75l3.72 0 0 -0 0.1 0c0.41,0 0.74,-0.34 0.74,-0.75l0 -0.08 0 -4.42c0,-0.41 0.33,-0.75 0.74,-0.75l3.75 0c0.41,0 0.74,0.34 0.74,0.75l-0.04 9.33c-0,0.41 -0.33,0.75 -0.74,0.75 -1.42,0 -2.84,-0 -4.26,-0z"/>
  <path class="fil0" d="M5.01 11.52l0 -0 0.1 0c0.41,0 0.74,-0.34 0.74,-0.75l0 -0.08 0 0 0 -3.96c0,-0.41 0.33,-0.75 0.74,-0.75l3.2 0c0.41,0 0.74,0.34 0.74,0.75l0 4.4 0 0 0 4.47c0,0.41 -0.33,0.75 -0.74,0.75l-3.72 -0 0 0 -0.1 0c-0.4,0 -0.73,0.32 -0.74,0.72l0 4.53c0,0.41 -0.33,0.75 -0.74,0.75l-3.75 0c-0.41,0 -0.74,-0.34 -0.74,-0.75l0 -9.33c0,-0.41 0.33,-0.75 0.74,-0.75 1.42,0 2.84,-0 4.26,0z"/>
  <path class="fil0" d="M16.95 17.65l0 -0 0.1 0c0.41,0 0.74,-0.34 0.74,-0.75l0 -0.08 0 0 0 -3.96c0,-0.41 0.33,-0.75 0.74,-0.75l3.06 0c0.41,0 0.74,0.34 0.74,0.75 0,3.17 0.01,5.57 0.01,8.73 0,0.41 -0.33,0.75 -0.74,0.75l-14.2 -0.01c-0.41,-0 -0.88,-0.34 -0.88,-0.75l0 -3.2c0,-0.41 0.48,-0.75 0.88,-0.75l9.55 0.01z"/>
  <path class="fil0" d="M-0 0.75c0,-0.41 0.33,-0.75 0.74,-0.75l14.2 0.01c0.41,0 0.88,0.34 0.88,0.75l0 3.2c0,0.41 -0.48,0.75 -0.88,0.75l-9.55 -0.01 0 0 -0.1 0c-0.4,0 -0.74,0.33 -0.74,0.74l0 4.04c0,0.41 -0.34,0.75 -0.74,0.75l-3.06 0c-0.41,0 -0.74,-0.34 -0.74,-0.75 0,-3.17 -0.01,-5.57 -0.01,-8.73z"/>
 </g>
</svg>
