<?xml version="1.0" encoding="UTF-8"?>
<!DOCTYPE svg PUBLIC "-//W3C//DTD SVG 1.1//EN" "http://www.w3.org/Graphics/SVG/1.1/DTD/svg11.dtd">
<svg xmlns="http://www.w3.org/2000/svg" xml:space="preserve" width="40mm" height="40mm" version="1.1" style="shape-rendering:geometricPrecision; text-rendering:geometricPrecision; image-rendering:optimizeQuality; fill-rule:evenodd; clip-rule:evenodd"
viewBox="0 0 1083.7 1083.7"
 xmlns:xlink="http://www.w3.org/1999/xlink">
 <defs>
  <style type="text/css">
   <![CDATA[
    .fil0 {fill:none}
    .fil1 {fill:#24292F}
   ]]>
  </style>
 </defs>
 <g id="L">
  <rect class="fil0" x="0" width="1083.7" height="1083.7"/>
  <path class="fil1" d="M270.49 288.62c0,-9.97 8.11,-18.14 18.03,-18.13l358.74 0.36c9.92,0.01 21.43,8.19 21.43,18.13l0 91.76c0,9.94 -11.55,18.14 -21.43,18.13l-231.88 -0.33 0 0.01 -2.37 0c-9.83,0 -17.9,8.04 -18.03,17.9l0 98.23c0,9.95 -8.14,18.13 -18.03,18.13l-88.2 0c-9.9,0 -18.03,-8.15 -18.03,-18.13 0,-76.89 -0.23,-149.17 -0.23,-226.05zm397.81 396.54l0 -0.01 2.37 0c9.91,0 18.03,-8.16 18.03,-18.13l0 -1.85 0.01 0 0 -96.15c0,-9.95 8.14,-18.13 18.03,-18.13l88.2 0c9.9,0 18.03,8.15 18.03,18.13 0,76.89 0.23,149.17 0.23,226.05 0,9.97 -8.11,18.14 -18.03,18.13l-358.74 -0.36c-9.92,-0.01 -21.43,-8.19 -21.43,-18.13l0 -91.76c0,-9.94 11.55,-18.14 21.43,-18.13l231.87 0.33zm-276.22 -134.85l0 -0 2.37 0c9.91,0 18.03,-8.16 18.03,-18.13l0 -1.85 0.05 0 0 -96.12c0,-9.96 8.12,-18.13 18.03,-18.13l84.63 0c9.89,0 18.03,8.15 18.03,18.13l0.01 106.81 0.04 0 0.01 108.48c0,9.97 -8.12,18.13 -18.03,18.13l-97.22 -0.01 0 0 -2.37 0c-9.71,0 -17.7,7.84 -18.02,17.53l0 109.91c0,9.97 -8.11,18.13 -18.03,18.13l-91.08 0c-9.91,0 -18.03,-8.16 -18.03,-18.13l0 -226.65c0,-9.97 8.11,-18.13 18.03,-18.13 34.52,0 69.04,-0 103.56,0.03zm298.76 -16.95l0 0.01 -2.37 0c-9.91,0 -18.03,8.16 -18.03,18.13l0 1.85 -0 0 0.72 96.15c0.08,9.96 -8.13,18.13 -18.03,18.13l-84.63 0c-9.89,0 -18.03,-8.15 -18.03,-18.13l-0.01 -106.81 -0.04 0 -0.01 -108.48c0,-9.97 8.12,-18.13 18.03,-18.13l97.21 0.01 0 -0.01 2.37 0c9.91,0 18.03,-8.17 18.03,-18.13l0 -1.85 0 -107.46c0,-9.97 8.11,-18.13 18.03,-18.13l91.08 0c9.92,0 18.07,8.17 18.03,18.13l-0.87 226.62c-0.04,9.96 -8.11,18.13 -18.03,18.13 -34.48,0 -68.97,-0.03 -103.46,-0.04z"/>
 </g>
</svg>
