<?xml version="1.0" encoding="UTF-8"?>
<!DOCTYPE svg PUBLIC "-//W3C//DTD SVG 1.1//EN" "http://www.w3.org/Graphics/SVG/1.1/DTD/svg11.dtd">
<svg xmlns="http://www.w3.org/2000/svg" xml:space="preserve" width="40.2mm" height="40.2mm" version="1.1" style="shape-rendering:geometricPrecision; text-rendering:geometricPrecision; image-rendering:optimizeQuality; fill-rule:evenodd; clip-rule:evenodd"
viewBox="0 0 3631.65 3631.65"
 xmlns:xlink="http://www.w3.org/1999/xlink">
 <defs>
  <style type="text/css">
   <![CDATA[
    .str0 {stroke:#2B2A29;stroke-width:18.07;stroke-miterlimit:22.9256}
    .fil1 {fill:#FEFEFE}
    .fil0 {fill:#24292F}
   ]]>
  </style>
 </defs>
 <g id="L">
  <rect class="fil0 str0" x="9.04" y="9.03" width="3613.58" height="3613.58"/>
  <path class="fil1" d="M950.67 872.23c0,-33.25 27.06,-60.48 60.13,-60.45l1196.23 1.19c33.07,0.03 71.47,27.3 71.47,60.46l0 305.96c0,33.14 -38.51,60.5 -71.47,60.46l-773.22 -1.1 0 0.02 -7.91 0c-32.78,0 -59.7,26.79 -60.11,59.68l0 327.56c0,33.18 -27.13,60.45 -60.13,60.45l-294.1 0c-33.01,0 -60.12,-27.19 -60.12,-60.45 0,-256.39 -0.77,-497.39 -0.77,-753.77zm1326.5 1322.25l0 -0.04 7.91 0c33.05,0 60.12,-27.22 60.12,-60.45l0 -6.17 0.03 0 0 -320.61c0,-33.18 27.13,-60.45 60.13,-60.45l294.1 0c33.01,0 60.12,27.19 60.12,60.45 0,256.39 0.76,497.39 0.76,753.77 0,33.25 -27.05,60.48 -60.12,60.45l-1196.23 -1.19c-33.07,-0.03 -71.47,-27.3 -71.47,-60.46l0 -305.96c0,-33.14 38.51,-60.5 71.47,-60.46l773.18 1.1zm-921.04 -449.66l0 -0.01 7.9 0c33.06,0 60.13,-27.22 60.13,-60.45l0 -6.17 0.16 0 0 -320.52c0,-33.23 27.07,-60.45 60.12,-60.45l282.2 0c32.98,0 60.13,27.19 60.13,60.45l0.02 356.17 0.13 0 0.02 361.71c0,33.24 -27.07,60.45 -60.13,60.45l-324.18 -0.05 0 0.01 -7.9 0c-32.39,0 -59.04,26.14 -60.09,58.46l0 366.51c0,33.24 -27.06,60.45 -60.12,60.45l-303.71 0c-33.06,0 -60.13,-27.22 -60.13,-60.45l0 -755.75c0,-33.25 27.06,-60.46 60.13,-60.46 115.11,0 230.22,-0.01 345.33,0.09zm996.2 -56.53l0 0.04 -7.91 0c-33.05,0 -60.12,27.22 -60.12,60.45l0 6.17 -0.01 0 2.4 320.61c0.25,33.2 -27.1,60.45 -60.12,60.45l-282.2 0c-32.98,0 -60.13,-27.19 -60.13,-60.45l-0.02 -356.17 -0.13 0 -0.02 -361.71c0,-33.24 27.07,-60.45 60.13,-60.45l324.15 0.05 0 -0.03 7.9 0c33.06,0 60.13,-27.23 60.13,-60.46l0 -6.17 0 -358.32c0,-33.24 27.06,-60.45 60.12,-60.45l303.71 0c33.06,0 60.25,27.25 60.12,60.45l-2.9 755.66c-0.12,33.23 -27.05,60.46 -60.13,60.46 -114.98,0 -229.99,-0.09 -344.98,-0.13z"/>
 </g>
</svg>
