/* XPM */
static char *minimize_2x[] = {
"32 32 2 1 ",
"  c black",
". c white",
"................................",
"................................",
"................................",
"................................",
"................................",
"................................",
"................................",
"................................",
"................................",
"................................",
"..........              ........",
"..........              ........",
"..........  ..........  ........",
"..........  ..........  ........",
"..........  ..........  ........",
"..........  ..........  ........",
"..........  ..........  ........",
"..........  ..........  ........",
"..........  ..........  ........",
"..........  ..........  ........",
"..........              ........",
"..........              ........",
"................................",
"................................",
"................................",
"................................",
"................................",
"................................",
"................................",
"................................",
"................................",
"................................"};
