/* XPM */
static char *minimize[] = {
"16 16 2 1 ",
"  c black",
". c white",
"................",
"................",
"................",
"................",
"................",
".....       ....",
"..... ..... ....",
"..... ..... ....",
"..... ..... ....",
"..... ..... ....",
".....       ....",
"................",
"................",
"................",
"................",
"................"};
