/* XPM */
static char * run_xpm[] = {
"16 16 21 1",
" 	g #FFFFFF",
".	g #4C4C4C",
"+	g #E2E2E2",
"@	g #000000",
"#	g #0F0F0F",
"$	g #909090",
"%	g #FDFDFD",
"&	g #3A3A3A",
"*	g #D5D5D5",
"=	g #050505",
"-	g #777777",
";	g #F8F8F8",
">	g #242424",
",	g #BEBEBE",
"'	g #010101",
")	g #5D5D5D",
"!	g #EDEDED",
"~	g #181818",
"{	g #AAAAAA",
"]	g #515151",
"^	g #E5E5E5",
"                ",
"   .+           ",
"   @#$%         ",
"   @@@&*        ",
"   @@@@=-;      ",
"   @@@@@@>,     ",
"   @@@@@@@')!   ",
"   @@@@@@@@@~{  ",
"   @@@@@@@@@~{  ",
"   @@@@@@@')!   ",
"   @@@@@@>,     ",
"   @@@@=-;      ",
"   @@@&*        ",
"   @#$%         ",
"   ]^           ",
"                "};
