/* XPM */
static char * run_task_xpm[] = {
"16 16 3 1",
" 	c #FFFFFF",
".	c #000000",
"+	c #B3B3B3",
"                ",
"                ",
"                ",
"                ",
"                ",
"                ",
"                ",
"                ",
"          ....+ ",
"          .++.. ",
"          ...+. ",
"          .+++. ",
"          ..... ",
"          .+++. ",
"          ..... ",
"                "};
