/* XPM */
static char *run_task_2x[] = {
"32 32 5 1",
" 	c #FFFFFF",
".	c #000000",
"+	c #B3B3B3",
"@	c #202020",
"#	c #A4A4A4",
"                                ",
"                                ",
"                                ",
"                                ",
"                                ",
"                                ",
"                                ",
"                                ",
"                                ",
"                                ",
"                                ",
"                                ",
"                                ",
"                                ",
"                                ",
"                                ",
"                                ",
"                   .......+     ",
"                   .+++++.@+    ",
"                   .+++++.#@+   ",
"                   .+++++....   ",
"                   .++++++++.   ",
"                   .+......+.   ",
"                   .++++++++.   ",
"                   .+......+.   ",
"                   .++++++++.   ",
"                   .+......+.   ",
"                   .++++++++.   ",
"                   .++++++++.   ",
"                   .++++++++.   ",
"                   ..........   ",
"                                "};
