/* XPM */
static char *splitbutton_closebottom[] = {
/* width height colors chars_per_pixel */
"16 16 5 1 ",
/* colors */
"  c black",
". c #808080",
"X c #888888",
"o c #C0C0C0",
"O c white",
/* pixels */
"OOOOOOOOOOOOOOOO",
"OOOOOOOOOOOOOOOO",
"OOOOOOOOOOOOOOOO",
"OOOOOOOOOOOOOOOO",
"OOOOOOOOOOOOOOOO",
"OOO           OO",
"OOO           OO",
"OOO OOOOOOOOO OO",
"OOO OOOOOOOOO OO",
"OOO OOX   .OO OO",
"OOO OOOX .OOO OO",
"OOO OOOOoOOOO OO",
"OOO OOOOOOOOO OO",
"OOO           OO",
"OOOOOOOOOOOOOOOO",
"OOOOOOOOOOOOOOOO"
};
