/* XPM */
static char *f5d163472de64995bdbd670d47165cd8fq74ICvgWHkujuyo[] = {
/* columns rows colors chars-per-pixel */
"32 32 2 1 ",
"  c black",
". c white",
/* pixels */
"................................",
"................................",
"................................",
"................................",
"................................",
"................................",
"....                ............",
"....                ............",
"....  ............  ............",
"....  ............  ............",
"....  ............  ............",
"....  ............  ............",
"....  ............  ......  ....",
"....  ............  ......  ....",
"....  ............  ......  ....",
"....  ............  ......  ....",
"....                ..          ",
"....                ..          ",
"....  ............  ......  ....",
"....  ............  ......  ....",
"....  ............  ......  ....",
"....  ............  ......  ....",
"....  ............  ............",
"....  ............  ............",
"....  ............  ............",
"....  ............  ............",
"....                ............",
"....                ............",
"................................",
"................................",
"................................",
"................................"
};
