/* XPM */
static char *splitbutton_vertical_2x[] = {
"32 32 2 1 ",
"  c black",
". c white",
"................................",
"................................",
"................................",
"................................",
"................................",
"................................",
"....                ............",
"....                ............",
"....  ............  ............",
"....  ............  ............",
"....  ............  ............",
"....  ............  ............",
"....  ............  ......  ....",
"....  ............  ......  ....",
"....  ............  ......  ....",
"....  ............  ......  ....",
"....                ..          ",
"....                ..          ",
"....  ............  ......  ....",
"....  ............  ......  ....",
"....  ............  ......  ....",
"....  ............  ......  ....",
"....  ............  ............",
"....  ............  ............",
"....  ............  ............",
"....  ............  ............",
"....                ............",
"....                ............",
"................................",
"................................",
"................................",
"................................"};
