/* XPM */
static char *splitbutton_closeright_2x[] = {
"32 32 5 1 ",
"  c black",
". c #777777",
"X c gray50",
"o c #808080",
"O c white",
"OOOOOOOOOOOOOOOOOOOOOOOOOOOOOOOO",
"OOOOOOOOOOOOOOOOOOOOOOOOOOOOOOOO",
"OOOOOOOOOOOOOOOOOOOOOOOOOOOOOOOO",
"OOOOOOOOOOOOOOOOOOOOOOOOOOOOOOOO",
"OOOOOOOOOOOOOOOOOOOOOOOOOOOOOOOO",
"OOOOOOOOOOOOOOOOOOOOOOOOOOOOOOOO",
"OOOO                  OOOOOOOOOO",
"OOOO                  OOOOOOOOOO",
"OOOO    OOOOOOOOOOOO  OOOOOOOOOO",
"OOOO    OOOOOOOOOOOO  OOOOOOOOOO",
"OOOO    OOOOOOOOOOOO  OOOOOOOOOO",
"OOOO    OOOOOOOOOOOO  OOOOOOOOOO",
"OOOO    OOOO.OOOOOOO  OOOOOOOOOO",
"OOOO    OOOO .OOOOOO  OOOOOOOOOO",
"OOOO    OOOO  .OOOOO  OOOOOOOOOO",
"OOOO    OOOO   .OOOO  OOOOOOOOOO",
"OOOO    OOOO    .OOO  OOOOOOOOOO",
"OOOO    OOOO    oOOO  OOOOOOOOOO",
"OOOO    OOOO   oOOOO  OOOOOOOOOO",
"OOOO    OOOO  oOOOOO  OOOOOOOOOO",
"OOOO    OOOO oOOOOOO  OOOOOOOOOO",
"OOOO    OOOOXOOOOOOO  OOOOOOOOOO",
"OOOO    OOOOOOOOOOOO  OOOOOOOOOO",
"OOOO    OOOOOOOOOOOO  OOOOOOOOOO",
"OOOO    OOOOOOOOOOOO  OOOOOOOOOO",
"OOOO    OOOOOOOOOOOO  OOOOOOOOOO",
"OOOO                  OOOOOOOOOO",
"OOOO                  OOOOOOOOOO",
"OOOOOOOOOOOOOOOOOOOOOOOOOOOOOOOO",
"OOOOOOOOOOOOOOOOOOOOOOOOOOOOOOOO",
"OOOOOOOOOOOOOOOOOOOOOOOOOOOOOOOO",
"OOOOOOOOOOOOOOOOOOOOOOOOOOOOOOOO"};
