/* XPM */
static char *_9a83e3a3b3d45bbc946a272bbc27ab09DJusjgPQPChS3q6[] = {
/* columns rows colors chars-per-pixel */
"16 16 2 1 ",
"  c black",
". c white",
/* pixels */
"................",
"................",
"................",
"................",
".         ......",
". ... ... ......",
". ... ... ... ..",
". ... ... ... ..",
". ... ... .     ",
". ... ... ... ..",
". ... ... ... ..",
". ... ... ......",
".         ......",
"................",
"................",
"................"
};
