/* XPM */
static char *splitbutton_horizontal[] = {
/* width height colors chars_per_pixel */
"16 16 2 1 ",
/* colors */
"  c black",
". c white",
/* pixels */
"................",
"................",
"................",
"..        ......",
".. ...... ......",
".. ...... ......",
".. ...... ... ..",
".. ...... ... ..",
"..        .     ",
".. ...... ... ..",
".. ...... ... ..",
".. ...... ......",
".. ...... ......",
"..        ......",
"................",
"................"
};
