/* XPM */
static char *_splitbutton_closetop_2x[] = {
/* width height colors chars_per_pixel */
"32 32 4 1 ",
/* colors */
"  c black",
". c #777777",
"X c gray50",
"o c white",
/* pixels */
"oooooooooooooooooooooooooooooooo",
"oooooooooooooooooooooooooooooooo",
"oooooooooooooooooooooooooooooooo",
"oooooooooooooooooooooooooooooooo",
"oooooooooooooooooooooooooooooooo",
"oooooooooooooooooooooooooooooooo",
"oooooooooooooooooooooooooooooooo",
"oooooooooooooooooooooooooooooooo",
"oooooooooooooooooooooooooooooooo",
"oooooooooooooooooooooooooooooooo",
"oooooo                      oooo",
"oooooo                      oooo",
"oooooo  oooooooooooooooooo  oooo",
"oooooo  oooooooooooooooooo  oooo",
"oooooo  oooooooooooooooooo  oooo",
"oooooo  ooooooooX.oooooooo  oooo",
"oooooo  oooooooX  .ooooooo  oooo",
"oooooo  ooooooX    .oooooo  oooo",
"oooooo  oooooX      .ooooo  oooo",
"oooooo  ooooX        .oooo  oooo",
"oooooo  oooooooooooooooooo  oooo",
"oooooo  oooooooooooooooooo  oooo",
"oooooo  oooooooooooooooooo  oooo",
"oooooo  oooooooooooooooooo  oooo",
"oooooo                      oooo",
"oooooo                      oooo",
"oooooo                      oooo",
"oooooo                      oooo",
"oooooooooooooooooooooooooooooooo",
"oooooooooooooooooooooooooooooooo",
"oooooooooooooooooooooooooooooooo",
"oooooooooooooooooooooooooooooooo"
};
