/* XPM */
static char *splitbutton_horizontal_2x[] = {
/* width height colors chars_per_pixel */
"32 32 2 1 ",
/* colors */
"  c black",
". c white",
/* pixels */
"................................",
"................................",
"................................",
"................................",
"................................",
"................................",
"................................",
"................................",
"..                  ............",
"..                  ............",
"..  ......  ......  ............",
"..  ......  ......  ............",
"..  ......  ......  ......  ....",
"..  ......  ......  ......  ....",
"..  ......  ......  ......  ....",
"..  ......  ......  ......  ....",
"..  ......  ......  ..          ",
"..  ......  ......  ..          ",
"..  ......  ......  ......  ....",
"..  ......  ......  ......  ....",
"..  ......  ......  ......  ....",
"..  ......  ......  ......  ....",
"..  ......  ......  ............",
"..  ......  ......  ............",
"..                  ............",
"..                  ............",
"................................",
"................................",
"................................",
"................................",
"................................",
"................................"
};
