/* XPM */
static char *_257901365fe45e1d1856694f4aca685MAHCkGhLJZEElTJV[] = {
/* columns rows colors chars-per-pixel */
"32 32 2 1 ",
"  c black",
". c white",
/* pixels */
"................................",
"................................",
"................................",
"................................",
"................................",
"................................",
"................................",
"................................",
"..                  ............",
"..                  ............",
"..  ......  ......  ............",
"..  ......  ......  ............",
"..  ......  ......  ......  ....",
"..  ......  ......  ......  ....",
"..  ......  ......  ......  ....",
"..  ......  ......  ......  ....",
"..  ......  ......  ..          ",
"..  ......  ......  ..          ",
"..  ......  ......  ......  ....",
"..  ......  ......  ......  ....",
"..  ......  ......  ......  ....",
"..  ......  ......  ......  ....",
"..  ......  ......  ............",
"..  ......  ......  ............",
"..                  ............",
"..                  ............",
"................................",
"................................",
"................................",
"................................",
"................................",
"................................"
};
