/* XPM */
static char *splitbutton_closeleft_2x[] = {
"32 32 4 1 ",
"  c black",
". c gray50",
"X c #888888",
"o c white",
"oooooooooooooooooooooooooooooooo",
"oooooooooooooooooooooooooooooooo",
"oooooooooooooooooooooooooooooooo",
"oooooooooooooooooooooooooooooooo",
"oooooooooooooooooooooooooooooooo",
"oooooooooooooooooooooooooooooooo",
"oooo                  oooooooooo",
"oooo                  oooooooooo",
"oooo  oooooooooooo    oooooooooo",
"oooo  oooooooooooo    oooooooooo",
"oooo  oooooooooooo    oooooooooo",
"oooo  oooooooooooo    oooooooooo",
"oooo  ooooooo.oooo    oooooooooo",
"oooo  oooooo. oooo    oooooooooo",
"oooo  ooooo.  oooo    oooooooooo",
"oooo  oooo.   oooo    oooooooooo",
"oooo  ooo.    oooo    oooooooooo",
"oooo  oooX    oooo    oooooooooo",
"oooo  ooooX   oooo    oooooooooo",
"oooo  oooooX  oooo    oooooooooo",
"oooo  ooooooX oooo    oooooooooo",
"oooo  ooooooo.oooo    oooooooooo",
"oooo  oooooooooooo    oooooooooo",
"oooo  oooooooooooo    oooooooooo",
"oooo  oooooooooooo    oooooooooo",
"oooo  oooooooooooo    oooooooooo",
"oooo                  oooooooooo",
"oooo                  oooooooooo",
"oooooooooooooooooooooooooooooooo",
"oooooooooooooooooooooooooooooooo",
"oooooooooooooooooooooooooooooooo",
"oooooooooooooooooooooooooooooooo"};
