/* XPM */
static char *splitbutton_closebottom_2x[] = {
/* width height colors chars_per_pixel */
"32 32 5 1 ",
/* colors */
"  c black",
". c gray50",
"X c #808080",
"o c #888888",
"O c white",
/* pixels */
"OOOOOOOOOOOOOOOOOOOOOOOOOOOOOOOO",
"OOOOOOOOOOOOOOOOOOOOOOOOOOOOOOOO",
"OOOOOOOOOOOOOOOOOOOOOOOOOOOOOOOO",
"OOOOOOOOOOOOOOOOOOOOOOOOOOOOOOOO",
"OOOOOOOOOOOOOOOOOOOOOOOOOOOOOOOO",
"OOOOOOOOOOOOOOOOOOOOOOOOOOOOOOOO",
"OOOOOOOOOOOOOOOOOOOOOOOOOOOOOOOO",
"OOOOOOOOOOOOOOOOOOOOOOOOOOOOOOOO",
"OOOOOOOOOOOOOOOOOOOOOOOOOOOOOOOO",
"OOOOOOOOOOOOOOOOOOOOOOOOOOOOOOOO",
"OOOOOO                      OOOO",
"OOOOOO                      OOOO",
"OOOOOO                      OOOO",
"OOOOOO                      OOOO",
"OOOOOO  OOOOOOOOOOOOOOOOOO  OOOO",
"OOOOOO  OOOOOOOOOOOOOOOOOO  OOOO",
"OOOOOO  OOOOOOOOOOOOOOOOOO  OOOO",
"OOOOOO  OOOOOOOOOOOOOOOOOO  OOOO",
"OOOOOO  OOOOo        XOOOO  OOOO",
"OOOOOO  OOOOOo      XOOOOO  OOOO",
"OOOOOO  OOOOOOo    XOOOOOO  OOOO",
"OOOOOO  OOOOOOOo  XOOOOOOO  OOOO",
"OOOOOO  OOOOOOOO..OOOOOOOO  OOOO",
"OOOOOO  OOOOOOOOOOOOOOOOOO  OOOO",
"OOOOOO  OOOOOOOOOOOOOOOOOO  OOOO",
"OOOOOO  OOOOOOOOOOOOOOOOOO  OOOO",
"OOOOOO                      OOOO",
"OOOOOO                      OOOO",
"OOOOOOOOOOOOOOOOOOOOOOOOOOOOOOOO",
"OOOOOOOOOOOOOOOOOOOOOOOOOOOOOOOO",
"OOOOOOOOOOOOOOOOOOOOOOOOOOOOOOOO",
"OOOOOOOOOOOOOOOOOOOOOOOOOOOOOOOO"
};
