/* XPM */
static char *splitbutton_closeleft[] = {
/* width height colors chars_per_pixel */
"16 16 5 1 ",
/* colors */
"  c black",
". c gray50",
"X c #888888",
"o c gray75",
"O c white",
/* pixels */
"OOOOOOOOOOOOOOOO",
"OOOOOOOOOOOOOOOO",
"OOOOOOOOOOOOOOOO",
"OO         OOOOO",
"OO OOOOOO  OOOOO",
"OO OOOOOO  OOOOO",
"OO OOO.OO  OOOOO",
"OO OO. OO  OOOOO",
"OO Oo  OO  OOOOO",
"OO OOX OO  OOOOO",
"OO OOO.OO  OOOOO",
"OO OOOOOO  OOOOO",
"OO OOOOOO  OOOOO",
"OO         OOOOO",
"OOOOOOOOOOOOOOOO",
"OOOOOOOOOOOOOOOO"
};
