/* XPM */
static char *splitbutton_closetop[] = {
"16 16 5 1 ",
"  c black",
". c #777777",
"X c gray50",
"o c #C0C0C0",
"O c white",
"OOOOOOOOOOOOOOOO",
"OOOOOOOOOOOOOOOO",
"OOOOOOOOOOOOOOOO",
"OOOOOOOOOOOOOOOO",
"OOOOOOOOOOOOOOOO",
"OOO           OO",
"OOO OOOOOOOOO OO",
"OOO OOOOoOOOO OO",
"OOO OOOX .OOO OO",
"OOO OOX   .OO OO",
"OOO OOOOOOOOO OO",
"OOO OOOOOOOOO OO",
"OOO           OO",
"OOO           OO",
"OOOOOOOOOOOOOOOO",
"OOOOOOOOOOOOOOOO"};
