/* XPM */
static char *_530e11edc874891da4de8ac8ddfb55aV7uRwtI0nDD1MTeK[] = {
/* columns rows colors chars-per-pixel */
"16 16 6 1 ",
"  c black",
". c #777777",
"X c gray50",
"o c #808080",
"O c gray75",
"+ c white",
/* pixels */
"++++++++++++++++",
"++++++++++++++++",
"++++++++++++++++",
"++         +++++",
"++  ++++++ +++++",
"++  ++++++ +++++",
"++  ++.+++ +++++",
"++  ++ .++ +++++",
"++  ++  O+ +++++",
"++  ++ o++ +++++",
"++  ++X+++ +++++",
"++  ++++++ +++++",
"++  ++++++ +++++",
"++         +++++",
"++++++++++++++++",
"++++++++++++++++"
};
