/* XPM */
static char * stop@2x_xpm[] = {
"32 32 2 1",
" 	c #000000",
".	c #FFFFFF",
"................................",
"................................",
"................................",
"................................",
"....                        ....",
"....                        ....",
"....                        ....",
"....                        ....",
"....                        ....",
"....                        ....",
"....                        ....",
"....                        ....",
"....                        ....",
"....                        ....",
"....                        ....",
"....                        ....",
"....                        ....",
"....                        ....",
"....                        ....",
"....                        ....",
"....                        ....",
"....                        ....",
"....                        ....",
"....                        ....",
"....                        ....",
"....                        ....",
"....                        ....",
"....                        ....",
"................................",
"................................",
"................................",
"................................"};
