/* XPM */
static char *stop_2x[] = {
"32 32 2 1",
" 	c #000000",
".	c #FFFFFF",
"................................",
"................................",
"................................",
"................................",
"....                        ....",
"....                        ....",
"....                        ....",
"....                        ....",
"....                        ....",
"....                        ....",
"....                        ....",
"....                        ....",
"....                        ....",
"....                        ....",
"....                        ....",
"....                        ....",
"....                        ....",
"....                        ....",
"....                        ....",
"....                        ....",
"....                        ....",
"....                        ....",
"....                        ....",
"....                        ....",
"....                        ....",
"....                        ....",
"....                        ....",
"....                        ....",
"................................",
"................................",
"................................",
"................................"};
