<?xml version="1.0" encoding="UTF-8"?>
<!DOCTYPE svg PUBLIC "-//W3C//DTD SVG 1.1//EN" "http://www.w3.org/Graphics/SVG/1.1/DTD/svg11.dtd">
<svg xmlns="http://www.w3.org/2000/svg" xml:space="preserve" width="115mm" height="40mm" version="1.1" style="shape-rendering:geometricPrecision; text-rendering:geometricPrecision; image-rendering:optimizeQuality; fill-rule:evenodd; clip-rule:evenodd"
viewBox="0 0 9263.38 3222.05"
 xmlns:xlink="http://www.w3.org/1999/xlink">
 <defs>
  <style type="text/css">
   <![CDATA[
    .fil0 {fill:#FEFEFE}
    .fil1 {fill:#24292F}
   ]]>
  </style>
 </defs>
 <g id="L">
  <rect class="fil0" x="-0.01" width="9263.38" height="3222.05"/>
  <g id="_1299383808672">
   <g>
    <g>
     <path class="fil1" d="M2871.48 807.34l270.75 0c29.44,0 53.52,24.11 53.52,53.52l0 151.89 49.68 0 0 -151.89c0,-29.44 24.08,-53.52 53.52,-53.52l270.75 0c29.44,0 53.52,24.09 53.52,53.52l0 698.48c0,29.43 -24.09,53.52 -53.52,53.52l-270.75 0c-29.41,0 -53.52,-24.08 -53.52,-53.52l0 -151.89 -49.68 0 0 151.89c0,29.41 -24.11,53.52 -53.52,53.52l-270.75 0c-29.43,0 -53.52,-24.08 -53.52,-53.52l0 -698.48c0,-29.44 24.08,-53.52 53.52,-53.52z"/>
     <path class="fil1" d="M4079.83 807.34l697.04 0c29.44,0 53.52,24.09 53.52,53.52l0 698.48c0,29.43 -24.09,53.52 -53.52,53.52l-697.04 0c-29.43,0 -53.52,-24.08 -53.52,-53.52l0 -698.48c0,-29.44 24.08,-53.52 53.52,-53.52zm328.22 428.53l40.59 0c3.01,0 5.47,-2.46 5.47,-5.47l0 -40.61c0,-3.01 -2.46,-5.47 -5.47,-5.47l-40.59 0c-3.01,0 -5.46,2.46 -5.46,5.47l0 40.61c0,3.01 2.45,5.47 5.46,5.47z"/>
     <path class="fil1" d="M5288.28 806.94l287.66 0c29.44,0 53.52,24.08 53.52,53.52l0 357.16 356.99 0c29.44,0 53.52,24.08 53.52,53.52l0 287.66c0,29.43 -24.08,53.52 -53.52,53.52l-406.82 0c-1.22,0.09 -2.46,0.13 -3.7,0.13l-287.66 0c-29.44,0 -53.52,-24.08 -53.52,-53.52l0 -698.48c0,-29.44 24.08,-53.52 53.52,-53.52z"/>
     <path class="fil1" d="M6496.25 804.21l697.04 0c29.44,0 53.52,24.09 53.52,53.52l0 698.48c0,29.43 -24.09,53.52 -53.52,53.52l-697.04 0c-29.43,0 -53.52,-24.08 -53.52,-53.52l0 -698.48c0,-29.44 24.08,-53.52 53.52,-53.52zm328.22 428.53l40.59 0c3.01,0 5.47,-2.46 5.47,-5.47l0 -40.61c0,-3.01 -2.46,-5.47 -5.47,-5.47l-40.59 0c-3.01,0 -5.46,2.46 -5.46,5.47l0 40.61c0,3.01 2.45,5.47 5.46,5.47z"/>
     <path class="fil1" d="M8457.91 1150.4l0 307.67 0 101.27c0,29.43 -24.09,53.52 -53.52,53.52l-270.75 0c-29.41,0 -53.52,-24.08 -53.52,-53.52l0 -357.96 -51.58 0 0 256.69 0 101.27c0,29.43 -24.09,53.52 -53.52,53.52l-270.75 0c-29.43,0 -53.52,-24.08 -53.52,-53.52l0 -698.48c0,-29.44 24.08,-53.52 53.52,-53.52l70.67 0c2.75,-0.44 5.55,-0.67 8.41,-0.67 199.07,0 320.77,0 519.84,0l101.27 0c29.44,0 53.52,24.08 53.52,53.52l0 287.66 -0.06 2.55z"/>
    </g>
    <path class="fil1" d="M2817.95 2364.41l0 -295.89c0,-29.39 24.08,-53.43 53.53,-53.43l198.19 0 5136.59 0 198.19 0c29.45,0 53.53,24.05 53.53,53.43l0 295.89c0,29.38 -24.11,53.44 -53.53,53.44l-198.19 0 -5136.59 0 -198.19 0c-29.44,0 -53.53,-24.04 -53.53,-53.44z"/>
   </g>
   <path class="fil1" d="M805.39 858.13c0,-29.65 24.13,-53.93 53.61,-53.9l1066.62 1.06c29.49,0.02 63.72,24.34 63.72,53.9l0 272.81c0,29.55 -34.34,53.95 -63.72,53.9l-689.44 -0.98 0 0.02 -7.06 0c-29.23,0 -53.23,23.89 -53.6,53.21l0 292.07c0,29.59 -24.19,53.9 -53.61,53.9l-262.23 0c-29.43,0 -53.61,-24.25 -53.61,-53.9 0,-228.61 -0.68,-443.5 -0.68,-672.1zm1182.77 1178.98l0 -0.03 7.06 0c29.47,0 53.61,-24.27 53.61,-53.9l0 -5.5 0.02 0 0 -285.87c0,-29.59 24.19,-53.9 53.61,-53.9l262.23 0c29.43,0 53.61,24.25 53.61,53.9 0,228.61 0.68,443.5 0.68,672.1 0,29.65 -24.12,53.93 -53.61,53.9l-1066.62 -1.06c-29.49,-0.02 -63.72,-24.34 -63.72,-53.9l0 -272.81c0,-29.55 34.34,-53.95 63.72,-53.9l689.41 0.98zm-821.24 -400.94l0 -0.01 7.05 0c29.47,0 53.61,-24.27 53.61,-53.9l0 -5.5 0.14 0 0 -285.79c0,-29.63 24.14,-53.9 53.61,-53.9l251.63 0c29.41,0 53.61,24.25 53.61,53.9l0.02 317.58 0.11 0 0.02 322.52c0,29.63 -24.14,53.9 -53.61,53.9l-289.06 -0.04 0 0.01 -7.05 0c-28.88,0 -52.64,23.31 -53.58,52.12l0 326.8c0,29.64 -24.13,53.9 -53.61,53.9l-270.8 0c-29.47,0 -53.61,-24.27 -53.61,-53.9l0 -673.87c0,-29.65 24.13,-53.9 53.61,-53.9 102.64,0 205.28,-0.01 307.91,0.08zm888.26 -50.4l0 0.03 -7.06 0c-29.47,0 -53.61,24.27 -53.61,53.9l0 5.5 -0.01 0 2.14 285.88c0.23,29.6 -24.17,53.9 -53.61,53.9l-251.63 0c-29.41,0 -53.61,-24.25 -53.61,-53.9l-0.02 -317.58 -0.11 0 -0.02 -322.52c0,-29.63 24.14,-53.9 53.61,-53.9l289.03 0.04 0 -0.02 7.05 0c29.47,0 53.61,-24.28 53.61,-53.9l0 -5.5 0 -319.5c0,-29.64 24.13,-53.9 53.61,-53.9l270.8 0c29.48,0 53.72,24.29 53.61,53.9l-2.59 673.79c-0.1,29.63 -24.12,53.9 -53.61,53.9 -102.53,0 -205.07,-0.08 -307.6,-0.11z"/>
  </g>
 </g>
</svg>
