<?xml version="1.0" encoding="UTF-8"?>
<!DOCTYPE svg PUBLIC "-//W3C//DTD SVG 1.1//EN" "http://www.w3.org/Graphics/SVG/1.1/DTD/svg11.dtd">
<svg xmlns="http://www.w3.org/2000/svg" xml:space="preserve" width="38.2612mm" height="7.79mm" version="1.1" style="shape-rendering:geometricPrecision; text-rendering:geometricPrecision; image-rendering:optimizeQuality; fill-rule:evenodd; clip-rule:evenodd"
viewBox="0 0 617.97 125.82"
 xmlns:xlink="http://www.w3.org/1999/xlink">
 <defs>
  <style type="text/css">
   <![CDATA[
    .fil0 {fill:#24292F}
   ]]>
  </style>
 </defs>
 <g id="L">
  <g id="_2444166393408">
   <path class="fil0" d="M97.45 60.94l0 0 -0.55 0c-2.3,0 -4.18,1.89 -4.18,4.2l0 0.43 -0 0 0.17 22.29c0.02,2.31 -1.88,4.2 -4.18,4.2l-18.01 0c-2.29,0 -4.18,-1.89 -4.18,-4.2l-0 -24.76 -0.01 0 -0 -25.15c0,-2.31 1.88,-4.2 4.18,-4.2l20.92 0 0 -0 0.55 0c2.3,0 4.18,-1.89 4.18,-4.2l0 -0.43 0 -24.91c0,-2.31 1.88,-4.2 4.18,-4.2l21.12 0c2.3,0 4.19,1.89 4.18,4.2l-0.2 52.54c-0.01,2.31 -1.88,4.2 -4.18,4.2 -7.99,0 -15.99,-0.01 -23.99,-0.01z"/>
   <path class="fil0" d="M28.19 64.87l0 -0 0.55 0c2.3,0 4.18,-1.89 4.18,-4.2l0 -0.43 0.01 0 0 -22.28c0,-2.31 1.88,-4.2 4.18,-4.2l18 0c2.29,0 4.18,1.89 4.18,4.2l0 24.76 0.01 0 0 25.15c0,2.31 -1.88,4.2 -4.18,4.2l-20.92 -0 0 0 -0.55 0c-2.25,0 -4.11,1.82 -4.18,4.07l0 25.48c0,2.31 -1.88,4.2 -4.18,4.2l-21.12 0c-2.3,0 -4.18,-1.89 -4.18,-4.2l0 -52.54c0,-2.31 1.88,-4.2 4.18,-4.2 8,0 16.01,-0 24.01,0.01z"/>
   <path class="fil0" d="M95.46 99.36l0 -0 0.55 0c2.3,0 4.18,-1.89 4.18,-4.2l0 -0.43 0 0 0 -22.29c0,-2.31 1.88,-4.2 4.18,-4.2l17.22 0c2.3,0 4.18,1.89 4.18,4.2 0,17.83 0.05,31.35 0.05,49.18 0,2.31 -1.88,4.21 -4.18,4.2l-79.94 -0.08c-2.3,-0 -4.97,-1.9 -4.97,-4.2l0 -18.04c0,-2.3 2.68,-4.21 4.97,-4.2l53.76 0.08z"/>
   <path class="fil0" d="M-0 4.2c0,-2.31 1.88,-4.2 4.18,-4.2l79.94 0.08c2.3,0 4.97,1.9 4.97,4.2l0 18.04c0,2.3 -2.68,4.21 -4.97,4.2l-53.76 -0.08 0 0 -0.55 0c-2.28,0 -4.15,1.86 -4.18,4.15l0 22.77c0,2.3 -1.89,4.2 -4.18,4.2l-17.22 0c-2.29,0 -4.18,-1.89 -4.18,-4.2 0,-17.82 -0.05,-31.35 -0.05,-49.18z"/>
   <path class="fil0" d="M196.22 16.15l0 -11.94c0,-2.31 1.88,-4.21 4.18,-4.21l21.12 0c2.3,0 4.19,1.9 4.18,4.21l-0.09 22.7 0.09 31.99c0.01,2.31 -1.88,4.21 -4.18,4.21l-21.12 0c-2.3,0 -4.18,-1.89 -4.18,-4.21l0 -11.86 -8.81 0 0.03 11.98c0.01,2.31 -1.88,4.21 -4.18,4.21l-21.12 0c-2.3,0 -4.18,-1.89 -4.18,-4.21 0,-18.23 0,-36.46 0,-54.68 0,-2.31 1.88,-4.21 4.18,-4.21l21.12 0c2.3,0 4.19,1.9 4.18,4.21l-0.05 11.84 8.83 -0.02z"/>
   <path class="fil0" d="M259.4 4.28c0,-1.34 0.63,-2.54 1.61,-3.31l0.02 -0.01 0.06 -0.05c0.72,-0.57 1.62,-0.91 2.61,-0.91 18.21,0.07 36.38,0 54.59,0l0.06 0 0.05 0c2.29,0.02 4.16,1.9 4.16,4.18 0,18.25 -0.08,36.49 -0.08,54.74 0,1.34 -0.63,2.54 -1.61,3.31l-0.02 0.01 -0.06 0.05c-0.72,0.57 -1.62,0.91 -2.61,0.91 -18.21,-0.07 -36.38,0 -54.59,0l-0.06 0 -0.05 -0c-2.29,-0.02 -4.16,-1.9 -4.16,-4.19 0,-18.25 0.08,-36.49 0.08,-54.74zm26.72 32.57l9.63 0c0.23,0 0.43,-0.19 0.43,-0.43l0 -9.65c0,-0.23 -0.2,-0.43 -0.43,-0.43l-9.63 0c-0.23,0 -0.42,0.2 -0.42,0.43l0 9.65c0,0.23 0.19,0.43 0.42,0.43z"/>
   <path class="fil0" d="M356.31 58.94c0,1.34 0.63,2.54 1.61,3.31l0.02 0.01 0.06 0.05c0.72,0.57 1.63,0.91 2.61,0.91l18.07 -0.07 2.96 0 0.31 -0.01 1.35 -0 31.97 0.09c2.31,0.01 4.2,-1.89 4.2,-4.19l0 -21.16c0,-2.3 -1.89,-4.19 -4.2,-4.19l-29.53 0 0.08 -29.47c0.01,-2.31 -1.88,-4.21 -4.18,-4.21l-21.13 0c-2.3,0 -4.18,1.89 -4.18,4.21 0,18.24 0,36.48 0,54.72z"/>
   <path class="fil0" d="M453.21 4.28c0,-1.34 0.63,-2.54 1.61,-3.31l0.02 -0.01 0.06 -0.05c0.72,-0.57 1.62,-0.91 2.61,-0.91 18.21,0.07 36.38,0 54.59,0l0.06 0 0.05 0c2.29,0.02 4.16,1.9 4.16,4.18 0,18.25 -0.08,36.49 -0.08,54.74 0,1.34 -0.63,2.54 -1.61,3.31l-0.02 0.01 -0.06 0.05c-0.72,0.57 -1.62,0.91 -2.61,0.91 -18.21,-0.07 -36.38,0 -54.59,0l-0.06 0 -0.05 -0c-2.29,-0.02 -4.16,-1.9 -4.16,-4.19 0,-18.25 0.08,-36.49 0.08,-54.74zm26.72 32.57l9.63 0c0.23,0 0.43,-0.19 0.43,-0.43l0 -9.65c0,-0.23 -0.2,-0.43 -0.43,-0.43l-9.63 0c-0.23,0 -0.42,0.2 -0.42,0.43l0 9.65c0,0.23 0.19,0.43 0.42,0.43z"/>
   <path class="fil0" d="M162.17 125.82c-2.31,0 -4.2,-1.88 -4.2,-4.19l0 -21.14c0,-2.3 1.89,-4.19 4.2,-4.18l451.57 0c2.31,-0.01 4.2,1.88 4.2,4.18l0 21.14c0,2.3 -1.89,4.19 -4.2,4.19 -18.21,0 -433.36,0 -451.57,0z"/>
   <path class="fil0" d="M617.97 27.38l0 -0.85 0 -22.32c0,-2.32 -1.88,-4.21 -4.19,-4.21l-6.29 0 0 -0 -38.17 0 0 0 -15.03 0c-2.3,0 -4.2,1.9 -4.19,4.21l0.09 22.74 -0.09 32.04c-0.01,2.32 1.88,4.22 4.19,4.22l21.14 0c2.3,0 4.19,-1.9 4.19,-4.22l0 -28 8.83 0 -0.08 28c-0.01,2.32 1.88,4.22 4.19,4.22l21.22 0c2.3,0 4.19,-1.9 4.19,-4.22l0 -31.62z"/>
  </g>
 </g>
</svg>
