<?xml version="1.0" encoding="UTF-8"?>
<!DOCTYPE svg PUBLIC "-//W3C//DTD SVG 1.1//EN" "http://www.w3.org/Graphics/SVG/1.1/DTD/svg11.dtd">
<svg xmlns="http://www.w3.org/2000/svg" xml:space="preserve" width="115mm" height="40mm" version="1.1" style="shape-rendering:geometricPrecision; text-rendering:geometricPrecision; image-rendering:optimizeQuality; fill-rule:evenodd; clip-rule:evenodd"
viewBox="0 0 9760.44 3394.93"
 xmlns:xlink="http://www.w3.org/1999/xlink">
 <defs>
  <style type="text/css">
   <![CDATA[
    .fil0 {fill:none}
    .fil1 {fill:#24292F}
   ]]>
  </style>
 </defs>
 <g id="L">
  <rect class="fil0" x="-0.01" width="9760.44" height="3394.93"/>
  <g id="_1335716274448">
   <g>
    <g>
     <path class="fil1" d="M3025.56 850.66l285.28 0c31.02,0 56.39,25.4 56.39,56.39l0 160.04 52.34 0 0 -160.04c0,-31.02 25.37,-56.39 56.39,-56.39l285.28 0c31.02,0 56.39,25.39 56.39,56.39l0 735.95c0,31 -25.39,56.39 -56.39,56.39l-285.28 0c-30.99,0 -56.39,-25.37 -56.39,-56.39l0 -160.04 -52.34 0 0 160.04c0,30.99 -25.4,56.39 -56.39,56.39l-285.28 0c-31,0 -56.39,-25.37 -56.39,-56.39l0 -735.95c0,-31.02 25.37,-56.39 56.39,-56.39z"/>
     <path class="fil1" d="M4298.74 850.66l734.44 0c31.02,0 56.39,25.39 56.39,56.39l0 735.95c0,31 -25.39,56.39 -56.39,56.39l-734.44 0c-31,0 -56.39,-25.37 -56.39,-56.39l0 -735.95c0,-31.02 25.37,-56.39 56.39,-56.39zm345.83 451.53l42.77 0c3.17,0 5.76,-2.59 5.76,-5.76l0 -42.79c0,-3.17 -2.59,-5.76 -5.76,-5.76l-42.77 0c-3.17,0 -5.75,2.59 -5.75,5.76l0 42.79c0,3.17 2.58,5.76 5.75,5.76z"/>
     <path class="fil1" d="M5572.04 850.24l303.1 0c31.02,0 56.39,25.37 56.39,56.39l0 376.33 376.15 0c31.02,0 56.39,25.38 56.39,56.39l0 303.1c0,31.01 -25.38,56.39 -56.39,56.39l-428.64 0c-1.29,0.09 -2.59,0.14 -3.9,0.14l-303.1 0c-31.02,0 -56.39,-25.37 -56.39,-56.39l0 -735.95c0,-31.02 25.37,-56.39 56.39,-56.39z"/>
     <path class="fil1" d="M6844.82 847.36l734.44 0c31.02,0 56.39,25.39 56.39,56.39l0 735.95c0,31 -25.39,56.39 -56.39,56.39l-734.44 0c-31,0 -56.39,-25.37 -56.39,-56.39l0 -735.95c0,-31.02 25.37,-56.39 56.39,-56.39zm345.83 451.53l42.77 0c3.17,0 5.76,-2.59 5.76,-5.76l0 -42.79c0,-3.17 -2.59,-5.76 -5.76,-5.76l-42.77 0c-3.17,0 -5.75,2.59 -5.75,5.76l0 42.79c0,3.17 2.58,5.76 5.75,5.76z"/>
     <path class="fil1" d="M8911.74 1212.13l0 324.17 0 106.7c0,31 -25.39,56.39 -56.39,56.39l-285.28 0c-30.99,0 -56.39,-25.37 -56.39,-56.39l0 -377.17 -54.35 0 0 270.47 0 106.7c0,31 -25.39,56.39 -56.39,56.39l-285.28 0c-31,0 -56.39,-25.37 -56.39,-56.39l0 -735.95c0,-31.02 25.37,-56.39 56.39,-56.39l74.46 0c2.89,-0.47 5.85,-0.7 8.86,-0.7 209.75,0 337.98,0 547.73,0l106.7 0c31.02,0 56.39,25.38 56.39,56.39l0 303.1 -0.07 2.68z"/>
    </g>
    <path class="fil1" d="M2969.16 2491.28l0 -311.77c0,-30.97 25.38,-56.3 56.41,-56.3l208.82 0 5412.2 0 208.82 0c31.03,0 56.41,25.34 56.41,56.3l0 311.77c0,30.95 -25.4,56.3 -56.41,56.3l-208.82 0 -5412.2 0 -208.82 0c-31.02,0 -56.41,-25.33 -56.41,-56.3z"/>
   </g>
   <path class="fil1" d="M848.61 904.17c0,-31.24 25.42,-56.82 56.49,-56.79l1123.85 1.12c31.07,0.03 67.14,25.65 67.14,56.8l0 287.45c0,31.13 -36.18,56.84 -67.14,56.8l-726.43 -1.04 0 0.02 -7.43 0c-30.8,0 -56.08,25.17 -56.47,56.07l0 307.74c0,31.17 -25.49,56.79 -56.49,56.79l-276.31 0c-31.01,0 -56.48,-25.55 -56.48,-56.79 0,-240.88 -0.72,-467.3 -0.72,-708.17zm1246.24 1242.24l0 -0.03 7.43 0c31.05,0 56.48,-25.57 56.48,-56.79l0 -5.8 0.03 0 0 -301.21c0,-31.17 25.49,-56.79 56.49,-56.79l276.31 0c31.01,0 56.48,25.55 56.48,56.79 0,240.88 0.71,467.3 0.71,708.17 0,31.24 -25.41,56.82 -56.48,56.79l-1123.85 -1.12c-31.07,-0.03 -67.14,-25.65 -67.14,-56.8l0 -287.45c0,-31.13 36.18,-56.84 67.14,-56.8l726.4 1.04zm-865.31 -422.46l0 -0.01 7.43 0c31.06,0 56.49,-25.57 56.49,-56.79l0 -5.8 0.15 0 0 -301.12c0,-31.22 25.44,-56.79 56.48,-56.79l265.13 0c30.99,0 56.49,25.55 56.49,56.79l0.02 334.62 0.12 0 0.02 339.82c0,31.22 -25.44,56.79 -56.49,56.79l-304.57 -0.04 0 0.01 -7.43 0c-30.43,0 -55.46,24.56 -56.46,54.92l0 344.33c0,31.23 -25.42,56.79 -56.48,56.79l-285.34 0c-31.06,0 -56.49,-25.57 -56.49,-56.79l0 -710.03c0,-31.24 25.42,-56.8 56.49,-56.8 108.15,0 216.29,-0.01 324.44,0.08zm935.92 -53.11l0 0.03 -7.43 0c-31.05,0 -56.48,25.57 -56.48,56.79l0 5.8 -0.01 0 2.26 301.22c0.24,31.19 -25.46,56.79 -56.48,56.79l-265.13 0c-30.99,0 -56.49,-25.55 -56.49,-56.79l-0.02 -334.62 -0.12 0 -0.02 -339.82c0,-31.22 25.44,-56.79 56.49,-56.79l304.53 0.04 0 -0.03 7.43 0c31.06,0 56.49,-25.58 56.49,-56.8l0 -5.8 0 -336.64c0,-31.23 25.42,-56.79 56.48,-56.79l285.34 0c31.06,0 56.6,25.6 56.48,56.79l-2.72 709.94c-0.11,31.22 -25.41,56.8 -56.49,56.8 -108.03,0 -216.07,-0.08 -324.11,-0.12z"/>
  </g>
 </g>
</svg>
