<?xml version="1.0" encoding="UTF-8"?>
<!DOCTYPE svg PUBLIC "-//W3C//DTD SVG 1.1//EN" "http://www.w3.org/Graphics/SVG/1.1/DTD/svg11.dtd">
<svg xmlns="http://www.w3.org/2000/svg" xml:space="preserve" width="115.2mm" height="40.2mm" version="1.1" style="shape-rendering:geometricPrecision; text-rendering:geometricPrecision; image-rendering:optimizeQuality; fill-rule:evenodd; clip-rule:evenodd"
viewBox="0 0 9282.63 3239.25"
 xmlns:xlink="http://www.w3.org/1999/xlink">
 <defs>
  <style type="text/css">
   <![CDATA[
    .str0 {stroke:#2B2A29;stroke-width:16.12;stroke-miterlimit:22.9256}
    .fil1 {fill:#FEFEFE}
    .fil0 {fill:#24292F}
   ]]>
  </style>
 </defs>
 <g id="L">
  <rect class="fil0 str0" x="8.05" y="8.06" width="9266.51" height="3223.13"/>
  <g id="_1335717142624">
   <g>
    <g>
     <path class="fil1" d="M2880.51 815.67l270.84 0c29.45,0 53.54,24.12 53.54,53.54l0 151.94 49.69 0 0 -151.94c0,-29.45 24.08,-53.54 53.54,-53.54l270.84 0c29.45,0 53.54,24.1 53.54,53.54l0 698.71c0,29.44 -24.1,53.54 -53.54,53.54l-270.84 0c-29.42,0 -53.54,-24.08 -53.54,-53.54l0 -151.94 -49.69 0 0 151.94c0,29.42 -24.12,53.54 -53.54,53.54l-270.84 0c-29.44,0 -53.54,-24.08 -53.54,-53.54l0 -698.71c0,-29.45 24.08,-53.54 53.54,-53.54z"/>
     <path class="fil1" d="M4089.26 815.67l697.28 0c29.45,0 53.54,24.1 53.54,53.54l0 698.71c0,29.44 -24.1,53.54 -53.54,53.54l-697.28 0c-29.44,0 -53.54,-24.08 -53.54,-53.54l0 -698.71c0,-29.45 24.08,-53.54 53.54,-53.54zm328.33 428.68l40.6 0c3.01,0 5.47,-2.46 5.47,-5.47l0 -40.63c0,-3.01 -2.46,-5.47 -5.47,-5.47l-40.6 0c-3.01,0 -5.46,2.46 -5.46,5.47l0 40.63c0,3.01 2.45,5.47 5.46,5.47z"/>
     <path class="fil1" d="M5298.12 815.27l287.76 0c29.45,0 53.54,24.08 53.54,53.54l0 357.28 357.12 0c29.45,0 53.54,24.09 53.54,53.54l0 287.76c0,29.44 -24.09,53.54 -53.54,53.54l-406.95 0c-1.22,0.09 -2.46,0.13 -3.7,0.13l-287.76 0c-29.45,0 -53.54,-24.08 -53.54,-53.54l0 -698.71c0,-29.45 24.08,-53.54 53.54,-53.54z"/>
     <path class="fil1" d="M6506.5 812.54l697.28 0c29.45,0 53.54,24.1 53.54,53.54l0 698.71c0,29.44 -24.1,53.54 -53.54,53.54l-697.28 0c-29.44,0 -53.54,-24.08 -53.54,-53.54l0 -698.71c0,-29.45 24.08,-53.54 53.54,-53.54zm328.33 428.68l40.6 0c3.01,0 5.47,-2.46 5.47,-5.47l0 -40.63c0,-3.01 -2.46,-5.47 -5.47,-5.47l-40.6 0c-3.01,0 -5.46,2.46 -5.46,5.47l0 40.63c0,3.01 2.45,5.47 5.46,5.47z"/>
     <path class="fil1" d="M8468.83 1158.85l0 307.77 0 101.3c0,29.44 -24.1,53.54 -53.54,53.54l-270.84 0c-29.42,0 -53.54,-24.08 -53.54,-53.54l0 -358.08 -51.6 0 0 256.78 0 101.3c0,29.44 -24.1,53.54 -53.54,53.54l-270.84 0c-29.44,0 -53.54,-24.08 -53.54,-53.54l0 -698.71c0,-29.45 24.08,-53.54 53.54,-53.54l70.69 0c2.75,-0.44 5.55,-0.67 8.41,-0.67 199.13,0 320.88,0 520.01,0l101.3 0c29.45,0 53.54,24.09 53.54,53.54l0 287.76 -0.06 2.55z"/>
    </g>
    <path class="fil1" d="M2826.96 2373.27l0 -295.99c0,-29.4 24.09,-53.45 53.55,-53.45l198.26 0 5138.32 0 198.26 0c29.46,0 53.55,24.06 53.55,53.45l0 295.99c0,29.39 -24.12,53.46 -53.55,53.46l-198.26 0 -5138.32 0 -198.26 0c-29.45,0 -53.55,-24.05 -53.55,-53.46z"/>
   </g>
   <path class="fil1" d="M813.72 866.48c0,-29.66 24.13,-53.95 53.63,-53.91l1066.98 1.06c29.5,0.02 63.75,24.35 63.75,53.92l0 272.9c0,29.56 -34.35,53.96 -63.75,53.92l-689.67 -0.98 0 0.02 -7.06 0c-29.24,0 -53.25,23.9 -53.62,53.23l0 292.17c0,29.6 -24.2,53.91 -53.63,53.91l-262.32 0c-29.44,0 -53.62,-24.25 -53.62,-53.91 0,-228.69 -0.68,-443.65 -0.68,-672.33zm1183.17 1179.38l0 -0.03 7.06 0c29.48,0 53.62,-24.28 53.62,-53.91l0 -5.5 0.02 0 0 -285.96c0,-29.6 24.2,-53.91 53.63,-53.91l262.32 0c29.44,0 53.62,24.25 53.62,53.91 0,228.69 0.68,443.65 0.68,672.33 0,29.66 -24.13,53.95 -53.62,53.91l-1066.98 -1.06c-29.5,-0.02 -63.75,-24.35 -63.75,-53.92l0 -272.9c0,-29.56 34.35,-53.96 63.75,-53.92l689.64 0.98zm-821.52 -401.08l0 -0.01 7.05 0c29.48,0 53.63,-24.28 53.63,-53.91l0 -5.5 0.15 0 0 -285.88c0,-29.64 24.15,-53.91 53.62,-53.91l251.71 0c29.42,0 53.63,24.25 53.63,53.91l0.02 317.69 0.11 0 0.02 322.63c0,29.64 -24.15,53.91 -53.63,53.91l-289.16 -0.04 0 0.01 -7.05 0c-28.89,0 -52.66,23.32 -53.6,52.14l0 326.91c0,29.65 -24.13,53.91 -53.62,53.91l-270.9 0c-29.48,0 -53.63,-24.28 -53.63,-53.91l0 -674.09c0,-29.66 24.13,-53.92 53.63,-53.92 102.67,0 205.35,-0.01 308.02,0.08zm888.56 -50.42l0 0.03 -7.06 0c-29.48,0 -53.62,24.28 -53.62,53.91l0 5.5 -0.01 0 2.14 285.97c0.23,29.61 -24.17,53.91 -53.62,53.91l-251.71 0c-29.42,0 -53.63,-24.25 -53.63,-53.91l-0.02 -317.69 -0.11 0 -0.02 -322.63c0,-29.64 24.15,-53.91 53.63,-53.91l289.12 0.04 0 -0.02 7.05 0c29.48,0 53.63,-24.29 53.63,-53.92l0 -5.5 0 -319.61c0,-29.65 24.13,-53.91 53.62,-53.91l270.9 0c29.49,0 53.74,24.3 53.62,53.91l-2.59 674.01c-0.1,29.64 -24.13,53.92 -53.63,53.92 -102.56,0 -205.14,-0.08 -307.7,-0.11z"/>
  </g>
 </g>
</svg>
